<mxfile host="app.diagrams.net" modified="2021-11-09T17:17:14.898Z" agent="5.0 (Windows NT 10.0; Win64; x64) AppleWebKit/537.36 (KHTML, like Gecko) Chrome/91.0.4472.101 Safari/537.36" etag="SR1w8Gd1mnSCvOFrnRkt" version="15.6.8" type="github">
  <diagram id="aVG5kMd3RmFo_G5l30vL" name="Page-1">
    <mxGraphModel dx="1108" dy="482" grid="1" gridSize="10" guides="1" tooltips="1" connect="1" arrows="1" fold="1" page="1" pageScale="1" pageWidth="827" pageHeight="1169" math="0" shadow="0">
      <root>
        <mxCell id="0" />
        <mxCell id="1" parent="0" />
        <mxCell id="Nkf5r5-KqAlOrVPvsHtz-1" value="" style="rounded=0;whiteSpace=wrap;html=1;" parent="1" vertex="1">
          <mxGeometry x="470" y="70" width="120" height="60" as="geometry" />
        </mxCell>
        <mxCell id="B1KvZHwz4GTzF7uihLqd-1" value="" style="ellipse;whiteSpace=wrap;html=1;" vertex="1" parent="1">
          <mxGeometry x="280" y="90" width="120" height="80" as="geometry" />
        </mxCell>
      </root>
    </mxGraphModel>
  </diagram>
</mxfile>
